<?xml version="1.0" encoding="UTF-8" standalone="no"?>
<!-- Created with Inkscape (http://www.inkscape.org/) -->

<svg
   xmlns:dc="http://purl.org/dc/elements/1.1/"
   xmlns:cc="http://creativecommons.org/ns#"
   xmlns:rdf="http://www.w3.org/1999/02/22-rdf-syntax-ns#"
   xmlns:svg="http://www.w3.org/2000/svg"
   xmlns="http://www.w3.org/2000/svg"
   xmlns:sodipodi="http://sodipodi.sourceforge.net/DTD/sodipodi-0.dtd"
   xmlns:inkscape="http://www.inkscape.org/namespaces/inkscape"
   width="276.24615mm"
   height="68.771416mm"
   viewBox="0 0 276.24615 68.771416"
   version="1.1"
   id="svg8"
   inkscape:version="0.92.4 (5da689c313, 2019-01-14)"
   sodipodi:docname="logo.svg"
   inkscape:export-filename="/web/ap/ParkFirst/backend/django-multifactor/logo3.png"
   inkscape:export-xdpi="90.045303"
   inkscape:export-ydpi="90.045303">
  <defs
     id="defs2" />
  <sodipodi:namedview
     id="base"
     pagecolor="#ffffff"
     bordercolor="#666666"
     borderopacity="1.0"
     inkscape:pageopacity="0.0"
     inkscape:pageshadow="2"
     inkscape:zoom="1.4"
     inkscape:cx="457.2017"
     inkscape:cy="224.57342"
     inkscape:document-units="mm"
     inkscape:current-layer="layer1"
     showgrid="false"
     fit-margin-top="20"
     fit-margin-left="20"
     fit-margin-right="20"
     fit-margin-bottom="20"
     inkscape:window-width="3840"
     inkscape:window-height="2074"
     inkscape:window-x="0"
     inkscape:window-y="0"
     inkscape:window-maximized="1" />
  <metadata
     id="metadata5">
    <rdf:RDF>
      <cc:Work
         rdf:about="">
        <dc:format>image/svg+xml</dc:format>
        <dc:type
           rdf:resource="http://purl.org/dc/dcmitype/StillImage" />
        <dc:title></dc:title>
      </cc:Work>
    </rdf:RDF>
  </metadata>
  <g
     inkscape:label="Layer 1"
     inkscape:groupmode="layer"
     id="layer1"
     transform="translate(32.710999,-122.33724)">
    <path
       style="fill:#000000;stroke-width:0.26458332"
       d="m 43.089283,162.95532 c -0.509323,-0.15348 -1.07487,-0.40196 -1.256771,-0.55218 -0.368839,-0.30461 -0.457231,-2.74476 -0.107262,-2.96105 0.122907,-0.076 0.867048,0.10692 1.653646,0.40641 1.079945,0.41118 1.868458,0.52 3.219889,0.44436 1.575869,-0.0882 1.886323,-0.19677 2.598269,-0.90871 0.81538,-0.81538 1.5186,-2.9009 1.112923,-3.30054 -0.115081,-0.11337 -0.771928,-0.0854 -1.459664,0.0622 -1.65888,0.35596 -3.809924,-0.0951 -5.177404,-1.08572 -2.858283,-2.07053 -3.218087,-7.52334 -0.681678,-10.33084 1.995953,-2.20928 5.5919,-3.14989 10.114177,-2.64563 1.367046,0.15243 2.589694,0.34153 2.716998,0.4202 0.127304,0.0787 0.23146,0.67181 0.23146,1.31806 v 1.17501 h -1.028292 c -1.007883,0 -1.031515,0.0223 -1.190739,1.12448 -0.08935,0.61847 -0.156686,3.38667 -0.14964,6.15157 0.0145,5.68656 -0.265899,7.17127 -1.652532,8.75056 -1.377114,1.56845 -2.630922,2.0556 -5.503797,2.13842 -1.382447,0.0399 -2.93026,-0.0531 -3.439583,-0.20659 z m 6.703745,-9.82439 c 0.401167,-0.29334 0.446196,-0.80109 0.381299,-4.29948 l -0.07359,-3.96686 -1.240237,0.0414 c -2.466525,0.0824 -4.028627,1.7502 -4.043153,4.31678 -0.01045,1.84472 0.514564,3.10553 1.558139,3.7419 0.932582,0.56869 2.746494,0.65692 3.417538,0.16624 z m -47.648015,8.54183 c -0.6184638,-0.28073 -1.1244788,-0.61538 -1.1244788,-0.74366 0,-0.12828 0.490488,-0.6274 1.0899731,-1.10916 2.0478491,-1.6457 2.1988775,-2.31788 2.3496098,-10.45743 l 0.1322917,-7.14375 1.0331124,-0.0846 c 0.568212,-0.0465 1.3234254,-0.0117 1.6782529,0.0774 l 0.6451441,0.16192 -0.1058228,7.33098 c -0.098769,6.84234 -0.1455499,7.4318 -0.7018681,8.84374 -0.4095512,1.03945 -0.9752886,1.8466 -1.8081199,2.57969 -1.3755478,1.2108 -1.626513,1.2537 -3.1880944,0.54487 z m 59.465103,-5.38175 c -1.28474,-0.40721 -3.247795,-2.4455 -3.645717,-3.78545 -0.87974,-2.96238 -0.601467,-5.57806 0.819658,-7.70448 2.268717,-3.39466 8.009577,-3.82648 10.664907,-0.80218 1.349935,1.53751 1.770065,2.99946 1.634016,5.686 -0.0845,1.66865 -0.274749,2.62679 -0.675061,3.39982 -0.734935,1.41922 -2.427239,2.92067 -3.685846,3.27017 -1.273083,0.35351 -3.898612,0.3207 -5.111957,-0.0639 z m 4.115507,-2.71976 c 1.223414,-0.58055 1.971632,-2.19048 1.9641,-4.22613 -0.01127,-3.0471 -1.49615,-4.83592 -3.761952,-4.53201 -1.948344,0.26133 -2.893512,1.71357 -2.893512,4.44586 0,2.26971 0.601376,3.62219 1.898774,4.27032 1.144847,0.57191 1.659496,0.57964 2.79259,0.042 z m 135.685817,2.43173 c -2.39271,-1.11411 -3.50994,-3.18276 -3.5293,-6.53484 -0.0132,-2.2797 0.27617,-3.3312 1.35225,-4.91432 2.26884,-3.3379 8.63661,-3.42528 10.89044,-0.14944 1.08241,1.57322 1.31692,2.42841 1.32335,4.82584 0.006,2.40627 -0.35858,3.63514 -1.53989,5.18392 -1.6428,2.15381 -5.66728,2.90636 -8.49685,1.58884 z m 5.10814,-2.68021 c 0.92969,-0.60916 1.40512,-1.94912 1.40512,-3.96026 0,-2.83632 -0.90936,-4.28953 -2.84682,-4.5494 -2.2658,-0.30391 -3.75068,1.48491 -3.76195,4.53201 -0.0136,3.68085 2.60347,5.68135 5.20365,3.97765 z m -213.8950138,2.78675 c -2.569198,-0.54042 -4.5492392,-2.19977 -5.1126702,-4.28462 -0.443694,-1.64179 -0.194199,-4.87406 0.47599,-6.16656 1.234164,-2.38016 3.5012762,-3.62888 6.6723242,-3.67509 l 1.994699,-0.0291 0.07421,-3.56125 c 0.05089,-2.44194 0.175625,-3.62568 0.396875,-3.76626 0.423078,-0.26882 2.34637197,-0.26402 2.77317397,0.007 0.261447,0.16597 0.318824,2.47218 0.264583,10.63464 l -0.06926,10.42271 -0.926042,0.19198 c -1.63699097,0.33938 -5.38991997,0.46934 -6.54388397,0.22661 z m 3.845134,-2.96347 c 0.217086,-0.21708 0.3175,-1.50386 0.3175,-4.06864 0,-4.42174 -0.03969,-4.49697 -2.252101,-4.26863 -2.67624,0.27622 -3.982896,1.90986 -3.779265,4.72503 0.129575,1.79135 0.717821,2.77099 2.081424,3.46631 1.040052,0.53033 3.16276,0.61561 3.632442,0.14593 z m 16.4609378,2.65065 c -1.305395,-0.89071 -1.62846,-1.65127 -1.52369,-3.58707 0.146407,-2.70516 1.540957,-3.92706 5.235464,-4.58731 l 1.840621,-0.32893 v -0.87757 c 0,-1.76383 -2.236509,-2.17843 -4.772421,-0.88471 -0.586608,0.29927 -1.18154,0.47306 -1.32207,0.38621 -0.140529,-0.0868 -0.255509,-0.68425 -0.255509,-1.32755 0,-1.08817 0.0701,-1.2054 1.006573,-1.68315 2.151044,-1.09738 5.247566,-1.26667 6.994581,-0.38241 1.534541,0.77672 1.649113,1.26357 1.730928,7.35514 0.04355,3.24296 -0.03102,5.72741 -0.178562,5.9489 -0.194551,0.29206 -1.132991,0.40555 -4.043537,0.48901 -3.645837,0.10453 -3.825314,0.0847 -4.712378,-0.52056 z m 5.576547,-2.36317 c 0.266543,-0.42088 0.318539,-2.36899 0.07983,-2.99105 -0.187857,-0.48955 -0.652579,-0.52037 -2.039393,-0.13527 -1.305986,0.36265 -2.033341,1.10777 -2.033341,2.083 0,1.13415 0.866862,1.66804 2.475597,1.52468 0.706734,-0.063 1.389521,-0.27958 1.517304,-0.48136 z m 94.299805,2.55767 c -1.29885,-0.47778 -2.14174,-1.41148 -2.5105,-2.78097 -0.16277,-0.60445 -0.24951,-3.06362 -0.2075,-5.88276 l 0.0722,-4.84413 h 1.5875 1.5875 l 0.13229,4.85217 0.13229,4.85217 0.75618,0.64982 c 0.65497,0.56286 0.97364,0.63938 2.38125,0.57179 l 1.62507,-0.078 0.14616,-5.42396 c 0.0804,-2.98318 0.16969,-5.4594 0.19844,-5.50273 0.0288,-0.0433 0.79642,-0.0433 1.70592,0 l 1.65365,0.0788 0.0707,6.53667 0.0707,6.53667 -0.59991,0.33102 c -0.93274,0.51466 -7.4751,0.59159 -8.80199,0.1035 z m 13.94354,0.0653 c -0.45595,-0.45596 -0.45595,-20.86946 0,-21.32542 0.17463,-0.17462 0.7602,-0.3175 1.30128,-0.3175 1.96339,0 1.82081,-0.85986 1.82081,10.98021 0,11.84007 0.14258,10.98021 -1.82081,10.98021 -0.54108,0 -1.12665,-0.14288 -1.30128,-0.3175 z m 11.19188,0.0449 c -2.64298,-0.38281 -2.87827,-0.88347 -3.04271,-6.47431 l -0.13229,-4.49791 -0.79375,-0.0896 c -1.06137,-0.11975 -1.45521,-0.48936 -1.45521,-1.36565 0,-0.90787 0.40324,-1.25498 1.58856,-1.36745 l 0.92498,-0.0878 0.13229,-1.71979 0.13229,-1.71979 h 1.45521 1.45521 l 0.13229,1.71979 0.13229,1.71979 1.32292,0.13229 1.32292,0.13229 v 1.19063 1.19062 l -1.32292,0.13229 -1.32292,0.1323 -0.073,3.7103 c -0.0819,4.15977 0.0417,4.54921 1.54118,4.85589 0.85509,0.17488 0.91311,0.25303 0.91311,1.22975 0,0.98831 -0.0485,1.05051 -0.92604,1.18628 -0.50932,0.0788 -1.40229,0.0743 -1.98437,-0.01 z m 6.53521,-0.0449 c -0.2302,-0.2302 -0.3175,-2.15671 -0.3175,-7.00642 v -6.68892 l 0.62053,-0.15574 c 0.34129,-0.0857 1.08543,-0.11769 1.65364,-0.0712 l 1.03312,0.0846 0.0707,6.86073 c 0.0547,5.31233 -0.005,6.90876 -0.26459,7.07355 -0.51469,0.32669 -2.43912,0.26022 -2.79591,-0.0966 z m 8.27496,-0.0132 c -0.0672,-0.1819 -0.15275,-2.65245 -0.19013,-5.49011 l -0.068,-5.15937 -0.79375,-0.0896 c -1.02174,-0.11528 -1.45521,-0.48587 -1.45521,-1.24411 0,-1.10538 0.2795,-1.44446 1.19063,-1.44446 0.99955,0 1.19062,-0.31658 1.19062,-1.97275 0,-3.49502 2.41897,-5.94566 5.88194,-5.95893 1.38182,-0.005 1.53044,0.0505 1.67558,0.62873 0.34148,1.36058 0.0639,1.86821 -1.10705,2.02452 -2.15311,0.2874 -3.16378,1.68048 -2.96568,4.08781 l 0.0871,1.05833 1.5875,0.13229 1.5875,0.1323 0.0845,1.0314 c 0.10364,1.26563 -0.17701,1.47276 -2.00268,1.47809 l -1.38906,0.004 v 5.39565 c 0,6.04279 0.11484,5.71685 -2.01432,5.71685 -0.70029,0 -1.22679,-0.13401 -1.29947,-0.33073 z m 10.06066,-0.0632 c -1.62769,-0.8741 -2.30354,-2.72984 -1.74696,-4.79683 0.50061,-1.85912 1.97571,-2.88882 5.05425,-3.52815 1.83426,-0.38093 1.99059,-0.46582 2.06655,-1.12222 0.20492,-1.7709 -1.81068,-2.2738 -4.56892,-1.13996 -1.7043,0.70059 -1.98377,0.60687 -1.99149,-0.66782 -0.01,-1.65274 2.12947,-2.72562 5.43672,-2.72635 2.18866,-4.7e-4 3.32757,0.5292 3.94766,1.83594 0.5253,1.107 0.59711,11.85784 0.0813,12.17661 -0.17591,0.10872 -1.93208,0.24207 -3.90261,0.29635 -2.92541,0.0806 -3.72842,0.0205 -4.37653,-0.32757 z m 4.82865,-2.15406 c 0.53891,-0.14442 0.59531,-0.32033 0.59531,-1.85677 0,-1.20791 -0.10643,-1.73808 -0.36914,-1.83889 -0.51315,-0.19691 -2.5766,0.38553 -3.13659,0.88534 -0.57824,0.5161 -0.60566,2.0029 -0.0472,2.56131 0.42052,0.42052 1.86417,0.54206 2.95767,0.24901 z m 11.34467,2.15956 c -1.50286,-0.5357 -2.84046,-1.73143 -3.58695,-3.20652 -0.52749,-1.04233 -0.65742,-1.6929 -0.6559,-3.28419 0.003,-3.22738 1.31905,-5.47394 3.96469,-6.76833 1.18138,-0.57799 1.83068,-0.71222 3.49358,-0.7222 1.25471,-0.008 2.34866,0.13432 2.83626,0.36779 0.69909,0.33472 0.80353,0.53372 0.87578,1.66861 l 0.082,1.28856 -0.74348,-0.17008 c -2.24295,-0.51308 -3.64509,-0.46983 -4.83847,0.14926 -1.53496,0.79628 -2.16052,1.89351 -2.16052,3.78952 0,1.89721 0.62555,2.99383 2.16052,3.78747 0.97104,0.50206 1.44689,0.58584 2.63978,0.46477 3.25715,-0.33058 3.03426,-0.37082 3.1247,0.56418 0.11618,1.20105 -0.3323,1.86486 -1.47417,2.18198 -1.38516,0.38469 -4.49696,0.32438 -5.71784,-0.11082 z m 13.7246,0.11589 c -2.64298,-0.38281 -2.87828,-0.88347 -3.04271,-6.47431 l -0.13229,-4.49791 -0.92604,-0.1323 c -0.90155,-0.12879 -0.92605,-0.16379 -0.92605,-1.32291 v -1.19063 l 1.05834,-0.13229 1.05833,-0.13229 0.13229,-1.71979 0.13229,-1.71979 h 1.45521 1.45521 l 0.13229,1.71979 0.13229,1.71979 1.32292,0.13229 1.32292,0.13229 v 1.19063 1.19062 l -1.32292,0.13229 -1.32292,0.1323 v 3.92439 c 0,3.57952 0.0451,3.95736 0.51359,4.29948 0.28248,0.2063 0.85487,0.37508 1.27199,0.37508 0.7283,0 0.75516,0.0445 0.67703,1.12132 -0.0767,1.05772 -0.13388,1.12938 -1.0074,1.26328 -0.50932,0.0781 -1.40229,0.073 -1.98437,-0.0113 z m 22.6832,0.0515 c -0.25925,-0.16456 -0.3194,-1.68001 -0.26458,-6.66596 l 0.071,-6.45298 1.5875,-0.48371 c 1.70576,-0.51975 4.83481,-0.72383 6.01927,-0.39259 0.66913,0.18713 0.72761,0.30939 0.72761,1.52136 v 1.31787 h -2.00177 c -3.19309,0 -3.02532,-0.31546 -3.02532,5.68855 0,4.81172 -0.0328,5.15828 -0.51177,5.41465 -0.60552,0.32406 -2.12592,0.35492 -2.6019,0.0528 z m -189.326604,-0.2199 c -0.09701,-0.097 -0.176389,-2.99946 -0.176389,-6.44989 0,-4.69932 0.08299,-6.34083 0.330729,-6.54181 1.026303,-0.83259 7.155656,-1.26379 8.982609,-0.63193 1.353407,0.46809 2.518789,1.86954 2.720568,3.27167 0.08989,0.62461 0.127701,3.21924 0.08403,5.76585 l -0.0794,4.63021 h -1.5875 -1.5875 l -0.132291,-4.98445 -0.132292,-4.98446 -0.742357,-0.63794 c -0.802013,-0.6892 -2.245128,-0.84703 -3.473752,-0.3799 l -0.678683,0.25803 v 5.01199 c 0,2.7566 -0.07227,5.20033 -0.160599,5.43051 -0.120573,0.31421 -0.538202,0.41851 -1.675694,0.41851 -0.833302,0 -1.594471,-0.0794 -1.691484,-0.17639 z m 60.336543,0.0115 c -0.103364,-0.10335 -0.187933,-3.07346 -0.187933,-6.60024 v -6.41231 l 0.830553,-0.28953 c 0.456804,-0.15924 1.880503,-0.41719 3.163771,-0.57322 1.984868,-0.24134 2.581786,-0.21653 3.998093,0.16616 2.014318,0.54427 1.982224,0.54423 4.393218,0.005 2.270459,-0.50764 4.013599,-0.35728 5.509319,0.47525 1.78951,0.99604 1.94792,1.63965 1.94839,7.9161 l 4.1e-4,5.50273 -1.65365,-0.0788 -1.65364,-0.0788 -0.13229,-5.05344 c -0.0967,-3.69365 -0.22844,-5.16905 -0.48961,-5.4831 -0.47495,-0.57111 -1.9124,-0.81848 -3.110149,-0.53522 l -0.96883,0.22912 -0.03081,5.42132 -0.03081,5.42132 -1.562957,0.0806 c -1.071287,0.0552 -1.631828,-0.028 -1.781887,-0.26458 -0.120409,-0.18985 -0.220752,-2.46395 -0.22298,-5.05356 -0.004,-4.64373 -0.01296,-4.71729 -0.653484,-5.35781 -0.70444,-0.70444 -2.168972,-0.8725 -3.428878,-0.39349 l -0.673177,0.25594 -0.07165,5.36646 -0.07165,5.36645 -1.465713,0.0777 c -0.806143,0.0427 -1.550283,-0.007 -1.653646,-0.11024 z M 74.508554,148.9445 c -0.487339,-0.28385 -0.633304,-1.68207 -0.240255,-2.30145 0.161753,-0.2549 1.155292,-0.32011 4.030845,-0.26459 l 3.81618,0.0737 0.08331,1.1644 c 0.05384,0.75246 -0.03977,1.24245 -0.264584,1.38502 -0.496662,0.31494 -6.870893,0.26596 -7.425496,-0.0571 z m 69.760526,-9.60149 c -0.0765,-0.19924 -0.10249,-1.00292 -0.0579,-1.78594 l 0.0812,-1.42367 h 1.5875 1.5875 l 0.0782,1.78594 0.0782,1.78594 h -1.60789 c -1.1169,0 -1.65035,-0.11062 -1.74691,-0.36227 z m -139.7552009,-1.6753 0.07853,-1.79889 h 1.5874999 1.5875 v 1.71979 1.71979 l -1.6660309,0.0791 -1.6660286,0.0791 z"
       id="path826"
       inkscape:connector-curvature="0" />
    <flowRoot
       xml:space="preserve"
       id="flowRoot866"
       style="font-style:normal;font-variant:normal;font-weight:normal;font-stretch:normal;font-size:40px;line-height:25px;font-family:'Bodoni Bd BT';-inkscape-font-specification:'Bodoni Bd BT';letter-spacing:0px;word-spacing:0px;fill:#000000;fill-opacity:1;stroke:none"
       transform="matrix(0.26458333,0,0,0.26458333,-33.301324,127.09977)"><flowRegion
         id="flowRegion868"><rect
           id="rect870"
           width="972.85712"
           height="67.85714"
           x="37.857143"
           y="157.06631" /></flowRegion><flowPara
         id="flowPara872"
         style="font-style:normal;font-variant:normal;font-weight:normal;font-stretch:normal;font-family:Rasa;-inkscape-font-specification:Rasa;text-align:center;text-anchor:middle">drop in multi-factor authentication for django</flowPara></flowRoot>  </g>
</svg>
