<?xml version="1.0" encoding="UTF-8"?>
<svg id="svg8" width="276.25mm" height="68.771mm" version="1.1" viewBox="0 0 276.25 68.771" xmlns="http://www.w3.org/2000/svg" xmlns:cc="http://creativecommons.org/ns#" xmlns:dc="http://purl.org/dc/elements/1.1/" xmlns:rdf="http://www.w3.org/1999/02/22-rdf-syntax-ns#">
 <metadata id="metadata5">
  <rdf:RDF>
   <cc:Work rdf:about="">
    <dc:format>image/svg+xml</dc:format>
    <dc:type rdf:resource="http://purl.org/dc/dcmitype/StillImage"/>
    <dc:title/>
   </cc:Work>
  </rdf:RDF>
 </metadata>
 <g id="layer1" transform="translate(32.711 -122.34)">
  <path id="path826" d="m43.089 170.89c-0.50932-0.15348-1.0749-0.40196-1.2568-0.55218-0.36884-0.30461-0.45723-2.7448-0.10726-2.961 0.12291-0.076 0.86705 0.10692 1.6536 0.40641 1.0799 0.41118 1.8685 0.52 3.2199 0.44436 1.5759-0.0882 1.8863-0.19677 2.5983-0.90871 0.81538-0.81538 1.5186-2.9009 1.1129-3.3005-0.11508-0.11337-0.77193-0.0854-1.4597 0.0622-1.6589 0.35596-3.8099-0.0951-5.1774-1.0857-2.8583-2.0705-3.2181-7.5233-0.68168-10.331 1.996-2.2093 5.5919-3.1499 10.114-2.6456 1.367 0.15243 2.5897 0.34153 2.717 0.4202 0.1273 0.0787 0.23146 0.67181 0.23146 1.3181v1.175h-1.0283c-1.0079 0-1.0315 0.0223-1.1907 1.1245-0.08935 0.61847-0.15669 3.3867-0.14964 6.1516 0.0145 5.6866-0.2659 7.1713-1.6525 8.7506-1.3771 1.5684-2.6309 2.0556-5.5038 2.1384-1.3824 0.0399-2.9303-0.0531-3.4396-0.20659zm6.7037-9.8244c0.40117-0.29334 0.4462-0.80109 0.3813-4.2995l-0.07359-3.9669-1.2402 0.0414c-2.4665 0.0824-4.0286 1.7502-4.0432 4.3168-0.01045 1.8447 0.51456 3.1055 1.5581 3.7419 0.93258 0.56869 2.7465 0.65692 3.4175 0.16624zm-47.648 8.5418c-0.61846-0.28073-1.1245-0.61538-1.1245-0.74366s0.49049-0.6274 1.09-1.1092c2.0478-1.6457 2.1989-2.3179 2.3496-10.457l0.13229-7.1438 1.0331-0.0846c0.56821-0.0465 1.3234-0.0117 1.6783 0.0774l0.64514 0.16192-0.10582 7.331c-0.098769 6.8423-0.14555 7.4318-0.70187 8.8437-0.40955 1.0394-0.97529 1.8466-1.8081 2.5797-1.3755 1.2108-1.6265 1.2537-3.1881 0.54487zm59.465-5.3818c-1.2847-0.40721-3.2478-2.4455-3.6457-3.7854-0.87974-2.9624-0.60147-5.5781 0.81966-7.7045 2.2687-3.3947 8.0096-3.8265 10.665-0.80218 1.3499 1.5375 1.7701 2.9995 1.634 5.686-0.0845 1.6686-0.27475 2.6268-0.67506 3.3998-0.73494 1.4192-2.4272 2.9207-3.6858 3.2702-1.2731 0.35351-3.8986 0.3207-5.112-0.0639zm4.1155-2.7198c1.2234-0.58055 1.9716-2.1905 1.9641-4.2261-0.01127-3.0471-1.4962-4.8359-3.762-4.532-1.9483 0.26133-2.8935 1.7136-2.8935 4.4459 0 2.2697 0.60138 3.6222 1.8988 4.2703 1.1448 0.57191 1.6595 0.57964 2.7926 0.042zm135.69 2.4317c-2.3927-1.1141-3.5099-3.1828-3.5293-6.5348-0.0132-2.2797 0.27617-3.3312 1.3522-4.9143 2.2688-3.3379 8.6366-3.4253 10.89-0.14944 1.0824 1.5732 1.3169 2.4284 1.3234 4.8258 6e-3 2.4063-0.35858 3.6351-1.5399 5.1839-1.6428 2.1538-5.6673 2.9064-8.4968 1.5888zm5.1081-2.6802c0.92969-0.60916 1.4051-1.9491 1.4051-3.9603 0-2.8363-0.90936-4.2895-2.8468-4.5494-2.2658-0.30391-3.7507 1.4849-3.762 4.532-0.0136 3.6808 2.6035 5.6814 5.2036 3.9776zm-213.9 2.7868c-2.5692-0.54042-4.5492-2.1998-5.1127-4.2846-0.44369-1.6418-0.1942-4.8741 0.47599-6.1666 1.2342-2.3802 3.5013-3.6289 6.6723-3.6751l1.9947-0.0291 0.07421-3.5612c0.05089-2.4419 0.17562-3.6257 0.39688-3.7663 0.42308-0.26882 2.3464-0.26402 2.7732 7e-3 0.26145 0.16597 0.31882 2.4722 0.26458 10.635l-0.06926 10.423-0.92604 0.19198c-1.637 0.33938-5.3899 0.46934-6.5439 0.22661zm3.8451-2.9635c0.21709-0.21708 0.3175-1.5039 0.3175-4.0686 0-4.4217-0.03969-4.497-2.2521-4.2686-2.6762 0.27622-3.9829 1.9099-3.7793 4.725 0.12958 1.7914 0.71782 2.771 2.0814 3.4663 1.0401 0.53033 3.1628 0.61561 3.6324 0.14593zm16.461 2.6506c-1.3054-0.89071-1.6285-1.6513-1.5237-3.5871 0.14641-2.7052 1.541-3.9271 5.2355-4.5873l1.8406-0.32893v-0.87757c0-1.7638-2.2365-2.1784-4.7724-0.88471-0.58661 0.29927-1.1815 0.47306-1.3221 0.38621-0.14053-0.0868-0.25551-0.68425-0.25551-1.3276 0-1.0882 0.0701-1.2054 1.0066-1.6832 2.151-1.0974 5.2476-1.2667 6.9946-0.38241 1.5345 0.77672 1.6491 1.2636 1.7309 7.3551 0.04355 3.243-0.03102 5.7274-0.17856 5.9489-0.19455 0.29206-1.133 0.40555-4.0435 0.48901-3.6458 0.10453-3.8253 0.0847-4.7124-0.52056zm5.5765-2.3632c0.26654-0.42088 0.31854-2.369 0.07983-2.991-0.18786-0.48955-0.65258-0.52037-2.0394-0.13527-1.306 0.36265-2.0333 1.1078-2.0333 2.083 0 1.1342 0.86686 1.668 2.4756 1.5247 0.70673-0.063 1.3895-0.27958 1.5173-0.48136zm94.3 2.5577c-1.2988-0.47778-2.1417-1.4115-2.5105-2.781-0.16277-0.60445-0.24951-3.0636-0.2075-5.8828l0.0722-4.8441h3.175l0.26458 9.7043 0.75618 0.64982c0.65497 0.56286 0.97364 0.63938 2.3812 0.57179l1.6251-0.078 0.14616-5.424c0.0804-2.9832 0.16969-5.4594 0.19844-5.5027 0.0288-0.0433 0.79642-0.0433 1.7059 0l1.6536 0.0788 0.1414 13.073-0.59991 0.33102c-0.93274 0.51466-7.4751 0.59159-8.802 0.1035zm13.944 0.0653c-0.45595-0.45596-0.45595-20.869 0-21.325 0.17463-0.17462 0.7602-0.3175 1.3013-0.3175 1.9634 0 1.8208-0.85986 1.8208 10.98s0.14258 10.98-1.8208 10.98c-0.54108 0-1.1266-0.14288-1.3013-0.3175zm11.192 0.0449c-2.643-0.38281-2.8783-0.88347-3.0427-6.4743l-0.13229-4.4979-0.79375-0.0896c-1.0614-0.11975-1.4552-0.48936-1.4552-1.3656 0-0.90787 0.40324-1.255 1.5886-1.3674l0.92498-0.0878 0.26458-3.4396h2.9104l0.26458 3.4396 2.6458 0.26458v2.3812l-2.6458 0.26459-0.073 3.7103c-0.0819 4.1598 0.0417 4.5492 1.5412 4.8559 0.85509 0.17488 0.91311 0.25303 0.91311 1.2298 0 0.98831-0.0485 1.0505-0.92604 1.1863-0.50932 0.0788-1.4023 0.0743-1.9844-0.01zm6.5352-0.0449c-0.2302-0.2302-0.3175-2.1567-0.3175-7.0064v-6.6889l0.62053-0.15574c0.34129-0.0857 1.0854-0.11769 1.6536-0.0712l1.0331 0.0846 0.0707 6.8607c0.0547 5.3123-5e-3 6.9088-0.26459 7.0736-0.51469 0.32669-2.4391 0.26022-2.7959-0.0966zm8.275-0.0132c-0.0672-0.1819-0.15275-2.6524-0.19013-5.4901l-0.068-5.1594-0.79375-0.0896c-1.0217-0.11528-1.4552-0.48587-1.4552-1.2441 0-1.1054 0.2795-1.4445 1.1906-1.4445 0.99955 0 1.1906-0.31658 1.1906-1.9728 0-3.495 2.419-5.9457 5.8819-5.9589 1.3818-5e-3 1.5304 0.0505 1.6756 0.62873 0.34148 1.3606 0.0639 1.8682-1.107 2.0245-2.1531 0.2874-3.1638 1.6805-2.9657 4.0878l0.0871 1.0583 1.5875 0.13229 1.5875 0.1323 0.0845 1.0314c0.10364 1.2656-0.17701 1.4728-2.0027 1.4781l-1.3891 4e-3v5.3956c0 6.0428 0.11484 5.7168-2.0143 5.7168-0.70029 0-1.2268-0.13401-1.2995-0.33073zm10.061-0.0632c-1.6277-0.8741-2.3035-2.7298-1.747-4.7968 0.50061-1.8591 1.9757-2.8888 5.0542-3.5282 1.8343-0.38093 1.9906-0.46582 2.0666-1.1222 0.20492-1.7709-1.8107-2.2738-4.5689-1.14-1.7043 0.70059-1.9838 0.60687-1.9915-0.66782-0.01-1.6527 2.1295-2.7256 5.4367-2.7264 2.1887-4.7e-4 3.3276 0.5292 3.9477 1.8359 0.5253 1.107 0.59711 11.858 0.0813 12.177-0.17591 0.10872-1.9321 0.24207-3.9026 0.29635-2.9254 0.0806-3.7284 0.0205-4.3765-0.32757zm4.8286-2.1541c0.53891-0.14442 0.59531-0.32033 0.59531-1.8568 0-1.2079-0.10643-1.7381-0.36914-1.8389-0.51315-0.19691-2.5766 0.38553-3.1366 0.88534-0.57824 0.5161-0.60566 2.0029-0.0472 2.5613 0.42052 0.42052 1.8642 0.54206 2.9577 0.24901zm11.345 2.1596c-1.5029-0.5357-2.8405-1.7314-3.587-3.2065-0.52749-1.0423-0.65742-1.6929-0.6559-3.2842 3e-3 -3.2274 1.319-5.4739 3.9647-6.7683 1.1814-0.57799 1.8307-0.71222 3.4936-0.7222 1.2547-8e-3 2.3487 0.13432 2.8363 0.36779 0.69909 0.33472 0.80353 0.53372 0.87578 1.6686l0.082 1.2886-0.74348-0.17008c-2.243-0.51308-3.6451-0.46983-4.8385 0.14926-1.535 0.79628-2.1605 1.8935-2.1605 3.7895 0 1.8972 0.62555 2.9938 2.1605 3.7875 0.97104 0.50206 1.4469 0.58584 2.6398 0.46477 3.2572-0.33058 3.0343-0.37082 3.1247 0.56418 0.11618 1.201-0.3323 1.8649-1.4742 2.182-1.3852 0.38469-4.497 0.32438-5.7178-0.11082zm13.725 0.11589c-2.643-0.38281-2.8783-0.88347-3.0427-6.4743l-0.13229-4.4979-0.92604-0.1323c-0.90155-0.12879-0.92605-0.16379-0.92605-1.3229v-1.1906l2.1167-0.26458 0.26458-3.4396h2.9104l0.26458 3.4396 2.6458 0.26458v2.3812l-2.6458 0.26459v3.9244c0 3.5795 0.0451 3.9574 0.51359 4.2995 0.28248 0.2063 0.85487 0.37508 1.272 0.37508 0.7283 0 0.75516 0.0445 0.67703 1.1213-0.0767 1.0577-0.13388 1.1294-1.0074 1.2633-0.50932 0.0781-1.4023 0.073-1.9844-0.0113zm22.683 0.0515c-0.25925-0.16456-0.3194-1.68-0.26458-6.666l0.071-6.453 1.5875-0.48371c1.7058-0.51975 4.8348-0.72383 6.0193-0.39259 0.66913 0.18713 0.72761 0.30939 0.72761 1.5214v1.3179h-2.0018c-3.1931 0-3.0253-0.31546-3.0253 5.6886 0 4.8117-0.0328 5.1583-0.51177 5.4146-0.60552 0.32406-2.1259 0.35492-2.6019 0.0528zm-189.33-0.2199c-0.09701-0.097-0.17639-2.9995-0.17639-6.4499 0-4.6993 0.08299-6.3408 0.33073-6.5418 1.0263-0.83259 7.1557-1.2638 8.9826-0.63193 1.3534 0.46809 2.5188 1.8695 2.7206 3.2717 0.08989 0.62461 0.1277 3.2192 0.08403 5.7658l-0.0794 4.6302h-3.175l-0.13229-4.9844-0.13229-4.9845-0.74236-0.63794c-0.80201-0.6892-2.2451-0.84703-3.4738-0.3799l-0.67868 0.25803v5.012c0 2.7566-0.07227 5.2003-0.1606 5.4305-0.12057 0.31421-0.5382 0.41851-1.6757 0.41851-0.8333 0-1.5945-0.0794-1.6915-0.17639zm60.337 0.0115c-0.10336-0.10335-0.18793-3.0735-0.18793-6.6002v-6.4123l0.83055-0.28953c0.4568-0.15924 1.8805-0.41719 3.1638-0.57322 1.9849-0.24134 2.5818-0.21653 3.9981 0.16616 2.0143 0.54427 1.9822 0.54423 4.3932 5e-3 2.2705-0.50764 4.0136-0.35728 5.5093 0.47525 1.7895 0.99604 1.9479 1.6396 1.9484 7.9161l4.1e-4 5.5027-3.3073-0.1576-0.13229-5.0534c-0.0967-3.6936-0.22844-5.169-0.48961-5.4831-0.47495-0.57111-1.9124-0.81848-3.1101-0.53522l-0.96883 0.22912-0.06162 10.843-1.563 0.0806c-1.0713 0.0552-1.6318-0.028-1.7819-0.26458-0.12041-0.18985-0.22075-2.464-0.22298-5.0536-4e-3 -4.6437-0.01296-4.7173-0.65348-5.3578-0.70444-0.70444-2.169-0.8725-3.4289-0.39349l-0.67318 0.25594-0.07165 5.3665-0.07165 5.3664-1.4657 0.0777c-0.80614 0.0427-1.5503-7e-3 -1.6536-0.11024zm-11.896-7.0001c-0.48734-0.28385-0.6333-1.6821-0.24026-2.3014 0.16175-0.2549 1.1553-0.32011 4.0308-0.26459l3.8162 0.0737 0.08331 1.1644c0.05384 0.75246-0.03977 1.2424-0.26458 1.385-0.49666 0.31494-6.8709 0.26596-7.4255-0.0571zm69.761-9.6015c-0.0765-0.19924-0.10249-1.0029-0.0579-1.7859l0.0812-1.4237h3.175l0.1564 3.5719h-1.6079c-1.1169 0-1.6504-0.11062-1.7469-0.36227zm-139.76-1.6753 0.07853-1.7989h3.175v3.4396l-3.3321 0.1582z" stroke-width=".26458"/>
 </g>
</svg>
