<?xml version="1.0" encoding="UTF-8" standalone="no"?>
<svg
   xmlns:dc="http://purl.org/dc/elements/1.1/"
   xmlns:cc="http://creativecommons.org/ns#"
   xmlns:rdf="http://www.w3.org/1999/02/22-rdf-syntax-ns#"
   xmlns:svg="http://www.w3.org/2000/svg"
   xmlns="http://www.w3.org/2000/svg"
   xmlns:sodipodi="http://sodipodi.sourceforge.net/DTD/sodipodi-0.dtd"
   xmlns:inkscape="http://www.inkscape.org/namespaces/inkscape"
   xml:space="preserve"
   enable-background="new 0 0 300 300"
   viewBox="0 0 200 200"
   height="200"
   width="200"
   y="0px"
   x="0px"
   id="Layer_1"
   version="1.1"
   sodipodi:docname="keys.svg"
   inkscape:version="0.92.4 (5da689c313, 2019-01-14)"><sodipodi:namedview
   pagecolor="#ffffff"
   bordercolor="#666666"
   borderopacity="1"
   objecttolerance="10"
   gridtolerance="10"
   guidetolerance="10"
   inkscape:pageopacity="0"
   inkscape:pageshadow="2"
   inkscape:window-width="1706"
   inkscape:window-height="1028"
   id="namedview7"
   showgrid="false"
   inkscape:zoom="1.18"
   inkscape:cx="102.54237"
   inkscape:cy="100"
   inkscape:window-x="1017"
   inkscape:window-y="351"
   inkscape:window-maximized="0"
   inkscape:current-layer="Layer_1" /><metadata
   id="metadata9"><rdf:RDF><cc:Work
       rdf:about=""><dc:format>image/svg+xml</dc:format><dc:type
         rdf:resource="http://purl.org/dc/dcmitype/StillImage" /><dc:title /></cc:Work></rdf:RDF></metadata><defs
   id="defs7" />

<path
   style="fill:#ececec;stroke-width:0.27842256;fill-opacity:0.04186046"
   id="path2-7"
   d="m 94.347455,173.82281 c -0.0378,-0.49336 -0.25837,-0.96779 -0.62005,-1.32167 l -31.25098,-31.25098 c 1.22952,-2.89643 1.87852,-6.03314 1.87852,-9.27481 0,-6.33523 -2.471,-12.29598 -6.94331,-16.77942 -4.4787,-4.47452 -10.43527,-6.94302 -16.77411,-6.94302 -6.34191,0 -12.28819,2.46933 -16.77413,6.94664 -9.2556,9.25059 -9.25755,24.29682 -0.001,33.54658 4.48567,4.48678 10.43389,6.95778 16.77246,6.95778 3.24251,0 6.37142,-0.65429 9.27481,-1.88548 l 10.26655,10.27435 c 0.4271,0.42181 0.99035,0.64566 1.59815,0.62589 l 5.5949,-0.19628 -0.18264,5.60882 c -0.0172,0.59165 0.19628,1.16742 0.62506,1.58868 0.41318,0.42097 0.99369,0.64984 1.58283,0.62589 l 5.6155,-0.19183 -0.20157,5.60269 c -0.0176,0.59221 0.20993,1.1691 0.6231,1.59035 0.4271,0.42098 0.92464,0.64734 1.59815,0.62673 l 5.60158,-0.19044 -0.18765,5.60354 c -0.0328,0.62143 0.22886,1.21921 0.67322,1.64352 0.40984,0.37281 0.9213,0.57355 1.46033,0.57355 0.0774,0 0.15675,-0.003 0.23582,-0.0103 l 8.58961,-0.95387 c 1.16075,-0.12669 2.00604,-1.16242 1.90636,-2.32567 z m -56.57518,-44.71187 c -2.63833,2.63554 -6.90377,2.63554 -9.53653,0 -2.63666,-2.63639 -2.63666,-6.90098 0,-9.53486 2.63276,-2.63388 6.8968,-2.63639 9.53653,-9e-4 2.63304,2.6336 2.63137,6.90098 0,9.5357 z m 49.24292,45.42742 c -0.3135,0.3135 -0.73364,0.46998 -1.14181,0.46998 -0.40817,0 -0.82858,-0.15675 -1.14181,-0.46998 l -26.58963,-26.59743 c 0.74032,-0.79824 1.41355,-1.63851 2.02497,-2.52195 l 26.84801,26.84272 c 0.627,0.62701 0.627,1.64993 2.7e-4,2.27666 z" /><path
   style="fill:#ececec;stroke-width:0.27842256;fill-opacity:0.04186046"
   id="path2-7-3"
   d="m 184.95738,77.165592 c -0.0378,-0.49336 -0.25837,-0.96779 -0.62005,-1.32167 l -31.25098,-31.25098 c 1.22952,-2.89643 1.87852,-6.03314 1.87852,-9.27481 0,-6.33523 -2.471,-12.29598 -6.94331,-16.77942 -4.4787,-4.47452 -10.43527,-6.943016 -16.77411,-6.943016 -6.34191,0 -12.28819,2.469326 -16.77413,6.946636 -9.2556,9.25059 -9.25755,24.29682 -0.001,33.54658 4.48567,4.48678 10.43389,6.95778 16.77246,6.95778 3.24251,0 6.37142,-0.65429 9.27481,-1.88548 l 10.26655,10.27435 c 0.4271,0.42181 0.99035,0.64566 1.59815,0.62589 l 5.5949,-0.19628 -0.18264,5.60882 c -0.0172,0.59165 0.19628,1.16742 0.62506,1.58868 0.41318,0.42097 0.99369,0.64984 1.58283,0.62589 l 5.6155,-0.19183 -0.20157,5.60269 c -0.0176,0.59221 0.20993,1.1691 0.6231,1.59035 0.4271,0.42098 0.92464,0.64734 1.59815,0.62673 l 5.60158,-0.19044 -0.18765,5.60354 c -0.0328,0.62143 0.22886,1.21921 0.67322,1.64352 0.40984,0.37281 0.9213,0.57355 1.46033,0.57355 0.0774,0 0.15675,-0.003 0.23582,-0.0103 l 8.58961,-0.95387 c 1.16075,-0.12669 2.00604,-1.16242 1.90636,-2.32567 z M 128.3822,32.453722 c -2.63833,2.63554 -6.90377,2.63554 -9.53653,0 -2.63666,-2.63639 -2.63666,-6.90098 0,-9.53486 2.63276,-2.63388 6.8968,-2.63639 9.53653,-9e-4 2.63304,2.6336 2.63137,6.90098 0,9.5357 z m 49.24292,45.42742 c -0.3135,0.3135 -0.73364,0.46998 -1.14181,0.46998 -0.40817,0 -0.82858,-0.15675 -1.14181,-0.46998 l -26.58963,-26.59743 c 0.74032,-0.79824 1.41355,-1.63851 2.02497,-2.52195 l 26.84801,26.84272 c 0.627,0.62701 0.627,1.64993 2.7e-4,2.27666 z" /></svg>